<svg width="751" height="751" viewBox="0 0 751 751" fill="none" xmlns="http://www.w3.org/2000/svg">
<path fill-rule="evenodd" clip-rule="evenodd" d="M751 375.5C751 582.883 582.883 751 375.5 751C168.117 751 0 582.883 0 375.5C0 168.117 168.117 0 375.5 0C582.883 0 751 168.117 751 375.5ZM220.823 224.457H167V392.146C167 466.638 227.192 527.382 301.78 527.382H311.78V473.65L301.871 473.56C257.027 473.152 220.823 436.883 220.823 392.146V224.457ZM369.459 224H315.636V392.146C315.636 466.638 375.828 527.382 450.416 527.382C525.437 527.382 585.652 466.662 585.652 392.146C585.652 317.582 525.389 257.366 450.416 257.366C420.177 257.366 392.076 267.413 369.459 284.382V224ZM369.459 392.146C369.459 347.391 405.661 311.189 450.416 311.189C495.66 311.189 531.83 347.424 531.83 392.146C531.83 436.933 495.595 473.559 450.416 473.559C405.727 473.559 369.459 436.965 369.459 392.146Z" fill="white"/>
</svg>
