<svg width="60" height="75" viewBox="0 0 60 75" fill="none" xmlns="http://www.w3.org/2000/svg">
<path d="M35.1839 0.201874C40.349 0.201874 43.93 2.06661 45.9268 5.79609L47.2634 11.3903C47.2634 13.7006 40.7781 18.0984 27.8074 24.5838C21.0746 27.4716 17.5678 29.2621 17.2873 29.9552C16.2477 31.886 15.5793 32.8513 15.2823 32.8513C14.5397 33.4454 13.8714 34.3365 13.2773 35.5247H12.8317V35.7475L12.609 35.5247H12.3862C12.0726 35.5247 11.6271 36.4983 11.0495 38.4455H10.604L10.8267 38.6683V38.8911C10.3647 38.8911 9.24253 40.6816 7.4603 44.2626C7.01474 46.0448 6.12363 46.9359 4.78695 46.9359V46.4903H4.56417L3.67306 46.7131L3.42553 46.4903H3.20275L2.53441 46.7131L2.08886 46.2676L1.6433 46.7131L0.083847 44.9309V44.4853C0.083847 43.0001 1.94859 38.3795 5.67807 30.6235L5.00973 30.4008L5.23251 30.178V29.9552L4.11862 29.0393L3.20275 29.2621L2.75719 28.5938L2.97997 28.371V28.1482C2.08886 28.1482 1.6433 27.9254 1.6433 27.4799C3.47503 26.0277 6.37941 24.3115 10.3564 22.3312L14.8367 13.1725H14.614C12.8317 13.1725 11.1155 11.4563 9.46531 8.02388V6.01887C10.6865 4.46767 13.8219 3.20526 18.8715 2.23164C21.7594 1.62106 27.1968 0.944469 35.1839 0.201874ZM22.8815 16.7618H23.1043C27.9559 14.501 32.428 11.7369 36.5205 8.46944V8.24666H36.2978C30.192 8.47769 27.1391 8.9315 27.1391 9.60809L22.8815 16.7618Z" fill="white"/>
<path d="M39.253 31.5534H41.9263C50.2269 31.5534 55.5901 33.938 58.0159 38.7071C58.7585 39.6312 59.1298 40.5966 59.1298 41.6032V41.826C59.1298 44.3178 55.7056 46.9252 48.8572 49.648V49.8708C52.1246 52.7422 53.7583 54.8957 53.7583 56.3314V57.668C53.7583 61.282 42.5204 66.6452 20.0445 73.7576L15.3661 74.8715L15.1186 74.6487L15.3661 74.4259V73.7576C14.6071 73.7576 14.2275 73.6091 14.2275 73.3121L14.0047 72.4209L16.2573 71.5298V71.307H16.0345L13.1136 71.7526V71.307C14.1532 71.1585 14.6731 70.9357 14.6731 70.6387H14.4503L13.1136 71.0843L12.8908 70.8615H12.6681L11.3314 71.0843H11.1086V70.8615L11.5542 70.1932V69.9704H11.3314L10.2175 70.1932L9.99471 69.9704V69.7476C11.3974 68.5429 12.5855 67.9406 13.5592 67.9406L13.1136 65.7128C14.3678 62.6434 19.5824 54.3099 28.7576 40.7121C25.9523 40.7121 24.0875 39.9695 23.1634 38.4843C22.5858 38.3193 21.9918 37.2714 21.3812 35.3407C21.3812 33.5419 24.7311 32.428 31.431 31.999L39.253 31.5534ZM38.1391 44.4993C42.6277 42.9481 46.4232 41.3887 49.5256 39.821C49.5256 39.3754 47.8093 39.1527 44.3769 39.1527H41.258C39.1787 42.189 38.1391 43.9713 38.1391 44.4993ZM26.7526 62.5939V62.8167C34.3766 60.2754 39.8058 57.7423 43.0402 55.2175H38.8074C33.2957 55.2175 30.5399 55.7373 30.5399 56.7769L26.7526 62.5939Z" fill="white"/>
</svg>
