<svg width="465" height="59" viewBox="0 0 465 59" fill="none" xmlns="http://www.w3.org/2000/svg">
<path d="M35.1839 9.20188C40.349 9.20188 43.93 11.0666 45.9267 14.7961L47.2634 20.3903C47.2634 22.7006 40.7781 27.0984 27.8074 33.5838C21.0745 36.4716 17.5678 38.2621 17.2873 38.9552C16.2477 40.886 15.5793 41.8513 15.2823 41.8513C14.5397 42.4454 13.8714 43.3365 13.2773 44.5247H12.8317V44.7475L12.609 44.5247H12.3862C12.0726 44.5247 11.6271 45.4983 11.0495 47.4456H10.6039L10.8267 47.6683V47.8911C10.3647 47.8911 9.24252 49.6816 7.46029 53.2626C7.01474 55.0448 6.12362 55.9359 4.78695 55.9359V55.4903H4.56417L3.67306 55.7131L3.42552 55.4903H3.20275L2.53441 55.7131L2.08885 55.2676L1.64329 55.7131L0.0838438 53.9309V53.4853C0.0838438 52.0001 1.94858 47.3795 5.67806 39.6235L5.00973 39.4008L5.23251 39.178V38.9552L4.11861 38.0393L3.20275 38.2621L2.75719 37.5938L2.97997 37.371V37.1482C2.08885 37.1482 1.64329 36.9255 1.64329 36.4799C3.47503 35.0277 6.3794 33.3115 10.3564 31.3312L14.8367 22.1726H14.614C12.8317 22.1726 11.1155 20.4563 9.4653 17.0239V15.0189C10.6865 13.4677 13.8219 12.2053 18.8715 11.2316C21.7594 10.6211 27.1968 9.94448 35.1839 9.20188ZM22.8815 25.7618H23.1043C27.9559 23.501 32.428 20.7369 36.5205 17.4694V17.2467H36.2978C30.192 17.4777 27.1391 17.9315 27.1391 18.6081L22.8815 25.7618ZM60.9767 11.0089C64.9537 11.0089 67.3878 12.1888 68.2789 14.5486C68.7904 16.6443 69.4093 20.8029 70.1354 27.0242L70.3581 27.247C70.4407 28.2206 70.6469 28.7074 70.977 28.7074L77.6356 27.8658V28.2866H77.8584L81.1753 28.0886V28.4846L79.7149 28.9054V29.1282H81.1753L82.6357 28.9054V29.3262C81.2165 29.8873 80.1109 30.1678 79.3188 30.1678V30.5886L80.3584 30.3659C81.3156 30.6464 81.7941 30.9269 81.7941 31.2075L82.8585 30.9847C85.6309 31.0672 87.017 31.3477 87.017 31.8263L86.7943 32.0243L88.2547 32.4451V32.8659C86.3735 33.8396 82.4872 34.6729 76.596 35.366L72.8582 35.9848C74.657 43.0477 75.5563 47.8416 75.5563 50.3664V51.1833L74.9375 51.8269H74.7147C74.2526 51.8269 73.7741 51.6123 73.279 51.1833V51.8269H72.8582V51.4061L72.2146 51.8269L71.3978 51.1833L69.3185 52.0249L67.6353 50.3664C66.9422 49.2443 65.9026 45.1435 64.5164 38.0641H64.3184C55.5722 40.4734 51.1992 42.3547 51.1992 43.7078C50.6381 44.0544 48.9714 46.1996 46.199 50.1437C45.2419 51.2658 44.4746 51.8269 43.897 51.8269L43.4762 50.7872L43.2782 50.9853H43.0801C42.2385 50.4902 41.8177 49.9374 41.8177 49.3268L41.6197 49.5248H41.1989V49.104C40.6213 49.104 40.0685 48.6915 39.5404 47.8664C38.9794 47.8664 38.6988 47.7261 38.6988 47.4456V45.9851C38.6988 44.4339 40.3655 41.8678 43.699 38.2869C45.1181 35.9271 47.4119 32.6597 50.5803 28.4846L57.6598 16.009L59.0954 11.8257C59.838 11.2811 60.4651 11.0089 60.9767 11.0089ZM59.3182 31.2075V31.4055C61.678 30.7949 62.8579 30.3824 62.8579 30.1678L62.2391 26.8262C61.8596 26.9912 60.8859 28.4516 59.3182 31.2075ZM78.6752 27.6678H79.096V28.0886H78.6752V27.6678ZM78.898 29.1282V29.3262H79.3188V29.1282H78.898ZM101.027 9.20188C106.193 9.20188 109.773 11.0666 111.77 14.7961L113.107 20.3903C113.107 22.7006 106.622 27.0984 93.6509 33.5838C86.918 36.4716 83.4113 38.2621 83.1308 38.9552C82.0912 40.886 81.4228 41.8513 81.1258 41.8513C80.3832 42.4454 79.7149 43.3365 79.1208 44.5247H78.6752V44.7475L78.4524 44.5247H78.2297C77.9161 44.5247 77.4706 45.4983 76.893 47.4456H76.4474L76.6702 47.6683V47.8911C76.2082 47.8911 75.086 49.6816 73.3038 53.2626C72.8582 55.0448 71.9671 55.9359 70.6304 55.9359V55.4903H70.4077L69.5165 55.7131L69.269 55.4903H69.0462L68.3779 55.7131L67.9323 55.2676L67.4868 55.7131L65.9273 53.9309V53.4853C65.9273 52.0001 67.7921 47.3795 71.5215 39.6235L70.8532 39.4008L71.076 39.178V38.9552L69.9621 38.0393L69.0462 38.2621L68.6007 37.5938L68.8234 37.371V37.1482C67.9323 37.1482 67.4868 36.9255 67.4868 36.4799C69.3185 35.0277 72.2229 33.3115 76.1999 31.3312L80.6802 22.1726H80.4574C78.6752 22.1726 76.959 20.4563 75.3088 17.0239V15.0189C76.5299 13.4677 79.6653 12.2053 84.715 11.2316C87.6029 10.6211 93.0403 9.94448 101.027 9.20188ZM88.725 25.7618H88.9478C93.7994 23.501 98.2715 20.7369 102.364 17.4694V17.2467H102.141C96.0355 17.4777 92.9826 17.9315 92.9826 18.6081L88.725 25.7618ZM117.241 11.3059H118.602C121.341 11.3059 123.47 12.5188 124.988 14.9446V15.8605C124.988 16.2895 123.544 18.8721 120.657 23.6082L110.632 44.3514C109.328 46.7442 108.412 48.1139 107.884 48.4604L107.661 48.2129H107.438L106.968 49.3516H106.523L106.968 47.7673L104.468 51.8764H104.245L104.022 51.6536V51.4061L104.245 51.1833V50.7377H104.022L103.107 52.7922H102.636V52.5447L103.107 51.4061L99.4431 54.3765L98.7748 53.9309L98.9976 53.6834V53.015L98.3045 53.4606L97.8589 53.015C97.8589 51.0183 103.329 38.0228 114.27 14.0288C114.93 12.2135 115.921 11.3059 117.241 11.3059ZM112.859 40.9602V41.3315H113.057V40.9602H112.859ZM150.261 11.4544H151.87C155.864 11.4544 158.719 12.6096 160.435 14.9199V16.9991C160.435 19.9365 159.354 21.4052 157.192 21.4052C155.625 20.9431 153.933 20.7121 152.118 20.7121C140.797 20.7121 133.017 26.1001 128.776 36.8759L128.305 39.2027V39.8958C128.305 42.2226 129.848 43.6831 132.934 44.2771C134.865 44.7392 137.406 44.9702 140.558 44.9702H144.717V45.4405H143.776V45.6633C144.139 45.6633 144.527 45.9686 144.94 46.5792H145.162V47.2723L142.637 47.5198V47.7426H143.083L142.637 49.1288H143.083V49.5991H142.637V49.8219C143.248 49.8219 143.553 50.1272 143.553 50.7377H144.024L143.776 50.515V50.2922L144.024 50.0446H145.41V50.515L145.633 50.7377L145.41 50.9853H144.717V51.208L145.162 51.6784H145.855L145.633 51.4308V51.208L146.326 50.9853L147.019 51.208C147.019 52.5942 141.631 53.2873 130.855 53.2873C124.056 53.2873 119.279 49.9786 116.523 43.3613V40.3414C116.523 33.196 121.374 25.572 131.078 17.4694C136.804 13.4594 143.199 11.4544 150.261 11.4544ZM145.162 45.8861H146.548V46.3564H145.162V45.8861ZM168.876 9.89497C171.104 9.89497 173.505 11.7432 176.079 15.4397C176.079 16.7434 174.916 19.4497 172.589 23.5587L170.51 28.1876H170.98L185.114 24.4746C187.226 19.0619 189.462 14.4331 191.822 10.5881L194.149 9.89497C195.865 9.94448 198.027 11.4132 200.634 14.301V15.6872C200.634 16.7929 199.091 19.722 196.005 24.4746C195.065 26.8344 194.594 28.4599 194.594 29.351L195.287 30.0441V30.5144L192.515 31.9006C192.515 32.3626 192.21 32.5936 191.599 32.5936V32.8164L191.822 33.064V33.2867C191.558 33.2867 191.327 33.7488 191.129 34.6729C190.733 34.6729 190.188 35.5228 189.495 37.2225H189.272L189.05 36.9997H188.802C188.802 38.2869 188.035 39.0542 186.5 39.3018L186.723 39.5493V40.0196C186.261 40.0196 186.03 40.2506 186.03 40.7127H185.559L185.337 41.6286L185.559 41.8513V42.3216H185.337L184.644 42.0989V42.792H184.421L184.644 43.0147V43.2623C183.406 44.4669 182.556 46.3977 182.094 49.0545C182.094 49.7971 181.632 50.7955 180.708 52.0497H180.46L180.238 51.8269H180.015L179.322 52.52C179.322 52.2064 178.472 51.9754 176.772 51.8269L176.525 50.8863L176.302 51.1338H176.079C175.617 50.5727 175.386 49.9539 175.386 49.2773C175.386 46.3729 176.698 42.3547 179.322 37.2225L180.46 34.4501H180.238L163.801 38.6087C163.438 39.5493 163.125 40.0196 162.861 40.0196L162.638 39.7721H162.391C161.318 40.9932 160.237 43.386 159.148 46.9505L156.153 51.6041H155.905V51.1338L154.989 51.8269L151.747 50.6635C151.747 49.8879 151.359 49.5001 150.583 49.5001V48.1139C150.583 46.3482 152.209 42.4124 155.46 36.3066L155.682 35.1432C155.22 34.9947 154.989 34.5326 154.989 33.757V31.9006C157.564 30.5639 159.032 29.1695 159.395 27.7173L164.247 16.1328L164.024 15.91V15.6872L166.103 11.0584L168.876 9.89497ZM207.12 10.0187H208.209C210.502 10.0187 212.375 11.2399 213.828 13.6822L214.026 14.5486C214.026 15.7532 212.441 19.3589 209.273 25.3657C205.956 31.8841 204.298 37.8578 204.298 43.287V43.9306C208.027 41.5048 211.055 38.5509 213.382 35.069C218.861 28.0886 222.103 23.0472 223.11 19.9448L224.397 17.1477C224.826 17.1477 225.041 16.9331 225.041 16.5041L225.264 16.2813H225.709V17.1477H225.907C226.303 14.7053 226.666 13.4842 226.996 13.4842H227.219V14.3505H227.417V12.6178H227.863V13.2614C228.374 12.9974 229.018 11.9165 229.793 10.0187H230.016C231.452 11.3554 232.17 13.4429 232.17 16.2813C232.17 25.7865 226.056 36.5872 213.828 48.6832C211.484 50.1354 208.819 50.8615 205.832 50.8615C200.304 50.8615 196.624 48.84 194.792 44.797L194.372 42.1979V41.1335C194.372 35.4568 195.527 30.4154 197.837 26.0093L203.456 12.8158C204.677 10.9511 205.898 10.0187 207.12 10.0187ZM250.017 8.03848H251.329C255.157 9.44116 257.071 11.2811 257.071 13.5584C256.081 15.1757 252.113 23.468 245.165 38.4354L243.408 41.5295L257.071 40.6384L258.829 40.8612H260.141V41.3068H259.497V41.9751H260.809V42.4207L258.606 43.5098L259.052 44.8217H260.364L262.344 46.8267C262.344 47.2228 258.012 48.0231 249.348 49.2278C245.685 49.9704 240.693 51.2245 234.373 52.9903H234.15C233.341 52.9903 231.947 51.8104 229.967 49.4506V49.2278L230.189 49.0298L229.967 48.807V46.6039C229.967 45.8614 230.627 44.9785 231.947 43.9554C238.878 31.1332 243.87 20.2666 246.923 11.3554L246.7 10.6871C247.624 8.92134 248.73 8.03848 250.017 8.03848ZM292.072 9.96923H292.32C293.888 9.96923 295.472 11.4792 297.073 14.4991L297.32 14.7466V15.8605C297.32 16.5701 296.132 17.1807 293.756 17.6922V17.915C297.403 22.4366 299.226 26.6694 299.226 30.6134V31.752C299.226 41.5213 295.018 47.8004 286.602 50.5892C283.731 51.3483 281.354 51.7279 279.473 51.7279H276.849C269.456 51.7279 264.134 47.9489 260.883 40.3909C260.421 40.2919 260.108 38.9305 259.943 36.3066V34.6977C259.943 27.3707 265.257 20.7204 275.884 14.7466C282.6 11.5617 287.996 9.96923 292.072 9.96923ZM268.755 36.7522V36.975C268.755 39.5988 270.422 41.1087 273.755 41.5048H275.661C280.793 41.5048 285.554 38.5592 289.944 32.6679C290.62 31.1167 291.091 29.0704 291.355 26.5291C291.206 24.4168 290.975 23.1297 290.662 22.6676L290.884 21.9993C290.455 19.722 290.142 18.5833 289.944 18.5833C285.274 19.2104 279.877 22.2386 273.755 27.6678C270.422 30.9022 268.755 33.9303 268.755 36.7522ZM316.925 11.5534H319.598C327.899 11.5534 333.262 13.938 335.688 18.7071C336.43 19.6312 336.801 20.5966 336.801 21.6032V21.826C336.801 24.3178 333.377 26.9252 326.529 29.648V29.8708C329.796 32.7422 331.43 34.8957 331.43 36.3314V37.668C331.43 41.282 320.192 46.6452 297.716 53.7576L293.038 54.8715L292.79 54.6487L293.038 54.426V53.7576C292.279 53.7576 291.899 53.6091 291.899 53.3121L291.676 52.4209L293.929 51.5298V51.3071H293.706L290.785 51.7526V51.3071C291.825 51.1585 292.345 50.9358 292.345 50.6387H292.122L290.785 51.0843L290.563 50.8615H290.34L289.003 51.0843H288.78V50.8615L289.226 50.1932V49.9704H289.003L287.889 50.1932L287.666 49.9704V49.7476C289.069 48.5429 290.257 47.9406 291.231 47.9406L290.785 45.7128C292.039 42.6434 297.254 34.3099 306.429 20.7121C303.624 20.7121 301.759 19.9695 300.835 18.4843C300.258 18.3193 299.663 17.2714 299.053 15.3407C299.053 13.5419 302.403 12.428 309.103 11.999L316.925 11.5534ZM315.811 24.4994C320.299 22.9482 324.095 21.3887 327.197 19.821C327.197 19.3754 325.481 19.1527 322.049 19.1527H318.93C316.85 22.1891 315.811 23.9713 315.811 24.4994ZM304.424 42.5939V42.8167C312.048 40.2754 317.477 37.7423 320.712 35.2175H316.479C310.967 35.2175 308.212 35.7373 308.212 36.7769L304.424 42.5939ZM359.203 10.8108C359.203 11.3719 359.484 11.6524 360.045 11.6524V12.0733H359.401V12.296C360.111 12.296 360.466 12.4363 360.466 12.7168V12.9396H359.624C359.624 13.3687 360.045 13.5832 360.886 13.5832V14.004H360.243V14.202H362.792L364.723 15.2664L364.5 15.4892V15.6872C365.21 15.6872 365.565 15.8357 365.565 16.1328C365.565 16.6443 362.941 17.2054 357.693 17.816C355.911 17.816 352.52 18.8061 347.52 20.7864L345.168 25.4647H345.391C346.15 25.1842 348.345 24.9697 351.975 24.8211L352.396 25.4647L351.752 25.6875V25.8855C352.891 25.8855 353.46 26.0258 353.46 26.3063L352.396 26.7519V26.9499H352.817L352.619 27.5935C352.619 28.3031 353.18 28.8724 354.302 29.3015V29.4995L354.104 29.7223V29.9203C354.814 29.9203 355.168 30.0688 355.168 30.3659V30.5639C355.168 30.9929 350.705 32.1233 341.777 33.9551C340.671 33.9551 339.252 36.0838 337.519 40.3414L352.817 37.7918V38.2126H353.04L354.104 37.9898C354.285 38.6994 354.64 39.0542 355.168 39.0542V39.6978C354.822 39.6978 354.467 39.9123 354.104 40.3414H353.658V40.5394H354.946V40.985H353.881L354.104 41.183V41.4058L353.881 41.6038C355.977 41.6038 357.107 41.9586 357.272 42.6682L357.074 42.891C357.784 42.99 358.139 43.2045 358.139 43.5346C356.885 44.3432 352.635 45.3993 345.391 46.703C336.892 48.1386 332.643 49.4176 332.643 50.5397C332.445 51.2823 331.81 51.9176 330.737 52.4457H330.514L329.252 51.3813H328.806L327.742 51.6041C327.742 51.241 327.04 50.8863 325.638 50.5397L324.994 50.7377L324.771 50.5397V50.3169L324.994 49.6733H324.573L324.351 49.8961H324.153L323.93 49.6733V49.4753C325.101 45.2673 330.341 33.3692 339.648 13.7812C339.648 12.362 340.638 11.5122 342.618 11.2316L350.911 11.4544L359.203 10.8108ZM380.639 11.0089C384.616 11.0089 387.05 12.1888 387.942 14.5486C388.453 16.6443 389.072 20.8029 389.798 27.0242L390.021 27.247C390.103 28.2206 390.31 28.7074 390.64 28.7074L397.298 27.8658V28.2866H397.521L400.838 28.0886V28.4846L399.378 28.9054V29.1282H400.838L402.298 28.9054V29.3262C400.879 29.8873 399.774 30.1678 398.981 30.1678V30.5886L400.021 30.3659C400.978 30.6464 401.457 30.9269 401.457 31.2075L402.521 30.9847C405.294 31.0672 406.68 31.3477 406.68 31.8263L406.457 32.0243L407.917 32.4451V32.8659C406.036 33.8396 402.15 34.6729 396.259 35.366L392.521 35.9848C394.32 43.0477 395.219 47.8416 395.219 50.3664V51.1833L394.6 51.8269H394.377C393.915 51.8269 393.437 51.6123 392.942 51.1833V51.8269H392.521V51.4061L391.877 51.8269L391.06 51.1833L388.981 52.0249L387.298 50.3664C386.605 49.2443 385.565 45.1435 384.179 38.0641H383.981C375.235 40.4734 370.862 42.3547 370.862 43.7078C370.301 44.0544 368.634 46.1996 365.862 50.1437C364.905 51.2658 364.137 51.8269 363.56 51.8269L363.139 50.7872L362.941 50.9853H362.743C361.901 50.4902 361.48 49.9374 361.48 49.3268L361.282 49.5248H360.862V49.104C360.284 49.104 359.731 48.6915 359.203 47.8664C358.642 47.8664 358.362 47.7261 358.362 47.4456V45.9851C358.362 44.4339 360.028 41.8678 363.362 38.2869C364.781 35.9271 367.075 32.6597 370.243 28.4846L377.322 16.009L378.758 11.8257C379.501 11.2811 380.128 11.0089 380.639 11.0089ZM378.981 31.2075V31.4055C381.341 30.7949 382.521 30.3824 382.521 30.1678L381.902 26.8262C381.522 26.9912 380.549 28.4516 378.981 31.2075ZM398.338 27.6678H398.759V28.0886H398.338V27.6678ZM398.561 29.1282V29.3262H398.981V29.1282H398.561ZM420.839 8.75632L425.269 8.9791H429.7C430.558 8.9791 431.185 9.37515 431.581 10.1673L431.334 10.39C432.11 10.4395 432.497 10.6706 432.497 11.0831V11.3307H429.948V11.5534H430.864V12.0237H430.418L430.641 12.2713L430.418 12.4941V12.9644L431.581 13.1871V13.4347L431.334 13.6575V13.905C432.275 13.905 432.745 14.5238 432.745 15.7615C433.372 15.844 433.685 16.075 433.685 16.4546V16.9249L419.898 18.5586C418.726 18.5586 417.794 20.0355 417.101 22.9894C408.883 38.9965 403.973 49.1948 402.373 53.5843C401.432 54.525 400.656 54.9953 400.046 54.9953L399.105 54.0547C398.181 54.0547 397.719 53.6669 397.719 52.8913L397.472 53.1388H397.249C397.216 52.7427 396.44 52.0414 394.922 51.0348L394.204 49.8466C394.204 46.7112 397.942 38.3859 405.417 24.8706L407.299 20.4398L398.635 21.826C395.368 21.826 393.189 20.3491 392.1 17.3952L391.407 14.5981V14.1278C391.407 13.1376 392.026 12.2053 393.263 11.3307H396.308C401.193 11.3307 409.37 10.4725 420.839 8.75632ZM460.864 8.9296H461.335C462.028 8.9296 462.952 9.46591 464.107 10.5386L464.33 10.7613H464.553L464.33 11.6772L464.553 14.4496C464.305 16.9084 463.464 18.1378 462.028 18.1378H460.642C454.635 18.1378 447.118 20.2088 438.092 24.3508V24.7964H438.314C449.47 25.7205 455.609 27.2552 456.731 29.4005C457.803 30.0276 458.34 31.1085 458.34 32.6432C457.927 37.6928 457.317 40.2176 456.508 40.2176C453.042 42.8085 449.206 44.8795 444.998 46.4307C438.677 48.5925 430.005 51.0513 418.982 53.8071L418.759 53.5843V53.3368L420.368 52.6685V52.1982L417.843 52.6685V52.4209C417.843 52.0744 418.223 51.8434 418.982 51.7279V51.2823H418.289V50.812H418.759V50.5892L417.373 50.1189L417.596 49.8961V49.203C416.985 49.203 416.68 48.972 416.68 48.5099L416.457 48.7327H415.987V48.5099L416.21 48.2872V48.0644H415.764C415.764 47.7508 415.533 47.5941 415.071 47.5941V47.3713C415.071 46.5957 421.284 44.4422 433.71 40.9107C441.961 38.0558 446.722 36.1416 447.993 35.168C434.94 34.3099 428.413 32.9237 428.413 31.0094C426.878 30.0193 426.111 28.5671 426.111 26.6529C426.111 24.8872 427.035 22.8161 428.883 20.4398C440.105 12.7663 450.765 8.9296 460.864 8.9296ZM419.675 49.8961V50.1189H420.145V49.8961H419.675Z" fill="white"/>
</svg>
